<?xml version="1.0" standalone="no"?><!DOCTYPE svg PUBLIC "-//W3C//DTD SVG 1.1//EN" "http://www.w3.org/Graphics/SVG/1.1/DTD/svg11.dtd"><svg t="1666575597060" class="icon" viewBox="0 0 1024 1024" version="1.1" xmlns="http://www.w3.org/2000/svg" p-id="1924" width="32" height="32" xmlns:xlink="http://www.w3.org/1999/xlink"><path d="M719.5 800.65c37.33 0 70.6-24.89 99.56-73.91 2.54-4.32 2.54-9.91 0-14.22-29.21-49.02-62.22-74.16-99.56-74.16-37.08 0-70.35 25.14-99.56 74.16-2.54 4.32-2.54 9.9 0 14.22 29.21 49.02 62.48 73.91 99.56 73.91z m-35.05-101.34c7.11-12.44 20.57-20.32 35.05-20.32 22.35 0 40.64 18.28 40.64 40.64 0 22.35-18.29 40.63-40.64 40.63-14.48 0-27.94-7.87-35.05-20.32-7.36-12.69-7.36-28.18 0-40.63z" p-id="1925" fill="#ffffff"></path><path d="M857.83 97H166.17C127.97 97 97 127.97 97 166.17v691.67c0 38.2 30.97 69.17 69.17 69.17H857.84c38.2 0 69.17-30.97 69.17-69.17V166.17C927 127.97 896.03 97 857.83 97z m0 760.83H581.17V581.17h276.67v276.66zM581.17 512c-38.2 0-69.17 30.97-69.17 69.17v276.67H166.17V166.17h691.67V512H581.17z" p-id="1926" fill="#ffffff"></path></svg>