<?xml version="1.0" standalone="no"?><!DOCTYPE svg PUBLIC "-//W3C//DTD SVG 1.1//EN" "http://www.w3.org/Graphics/SVG/1.1/DTD/svg11.dtd"><svg t="1685975580197" class="icon" viewBox="0 0 1024 1024" version="1.1" xmlns="http://www.w3.org/2000/svg" p-id="1582" xmlns:xlink="http://www.w3.org/1999/xlink" width="32" height="32"><path d="M958.732902 547.666928l0.089311 0.076552v412.692708s0 0.063793-0.089311 0.076552h-614.969038s-0.063793 0-0.08931-0.076552V547.74348l0.08931-0.076552h614.969038m0-63.474501H343.853175a63.614847 63.614847 0 0 0-63.614847 63.614847v412.577879a63.614847 63.614847 0 0 0 63.614847 63.614847h614.879727A63.614847 63.614847 0 0 0 1022.347749 960.385153V547.807274a63.614847 63.614847 0 0 0-63.614847-63.614847zM118.636714 476.333072H65.216063l-0.089311-0.089311V63.563812l0.089311-0.089311h614.969038l0.089311 0.089311v149.952928h63.474501V63.614847A63.614847 63.614847 0 0 0 680.146825 0H65.267098A63.614847 63.614847 0 0 0 1.652251 63.614847v412.577879a63.614847 63.614847 0 0 0 63.614847 63.614847h53.369616z" p-id="1583" fill="#ffffff"></path><path d="M651.286659 661.091716a158.998841 158.998841 0 0 1 113.144096 46.862682L810.553433 754.038799l-46.122678 46.186472a160.006778 160.006778 0 0 1-226.275433 0L492.019886 754.038799l46.135436-46.135436a158.998841 158.998841 0 0 1 113.131337-46.862682m0-42.754383a202.110467 202.110467 0 0 0-143.369441 59.429995l-68.016596 68.016597a11.827309 11.827309 0 0 0 0 16.726647l68.016596 68.003838a202.761161 202.761161 0 0 0 286.751642 0l68.016596-68.003838a11.827309 11.827309 0 0 0 0-16.726647l-68.016596-68.016597a202.123226 202.123226 0 0 0-143.382201-59.37896z" p-id="1584" fill="#ffffff"></path><path d="M651.286659 718.914116A35.188477 35.188477 0 1 1 616.110941 754.038799a35.226753 35.226753 0 0 1 35.175718-35.175718m0-42.767142a77.955619 77.955619 0 1 0 77.955619 77.94286 77.94286 77.94286 0 0 0-77.955619-77.828031zM254.108524 718.429285H204.515481l-0.076552-0.089311V305.660026l0.076552-0.089311h614.969038l0.076552 0.089311v155.388131h63.48726V305.71106A63.614847 63.614847 0 0 0 819.484519 242.096214H204.515481a63.614847 63.614847 0 0 0-63.614847 63.614846V718.314457A63.614847 63.614847 0 0 0 204.515481 781.903786h49.554767z" p-id="1585" fill="#ffffff"></path></svg>