<?xml version="1.0" standalone="no"?><!DOCTYPE svg PUBLIC "-//W3C//DTD SVG 1.1//EN" "http://www.w3.org/Graphics/SVG/1.1/DTD/svg11.dtd"><svg t="1666575726808" class="icon" viewBox="0 0 1029 1024" version="1.1" xmlns="http://www.w3.org/2000/svg" p-id="3113" xmlns:xlink="http://www.w3.org/1999/xlink" width="32.15625" height="32"><path d="M895.937284 1023.928325H148.469607v-51.196416h747.467677a88.057836 88.057836 0 0 0 81.914266-92.153549V435.169538h-255.982081v-51.196416h307.178498v496.605238a138.742288 138.742288 0 0 1-133.110683 143.349965zM220.14459 383.973122H511.964163v51.196416H220.14459z" fill="#ffffff" p-id="3114"></path><path d="M127.991041 819.14266A76.794624 76.794624 0 1 1 51.196416 895.937284 76.794624 76.794624 0 0 1 127.991041 819.14266m0-51.196416A127.991041 127.991041 0 1 0 255.982081 895.937284 127.991041 127.991041 0 0 0 127.991041 767.946244z" fill="#ffffff" p-id="3115"></path><path d="M127.991041 358.374914A73.210875 73.210875 0 0 1 204.785665 426.466147v477.662564A73.210875 73.210875 0 0 1 127.991041 972.731909 73.210875 73.210875 0 0 1 51.196416 904.640675V426.466147A73.210875 73.210875 0 0 1 127.991041 358.374914m0-51.196416A123.895327 123.895327 0 0 0 0 426.466147v477.662564A123.895327 123.895327 0 0 0 127.991041 1023.928325 123.895327 123.895327 0 0 0 255.982081 904.640675V426.466147A123.895327 123.895327 0 0 0 127.991041 307.178498z" fill="#ffffff" p-id="3116"></path><path d="M260.589759 410.083294l-36.349456 36.349456 563.160579 563.160578 36.349455-36.349455-563.160578-563.160579z" fill="#ffffff" p-id="3117"></path><path d="M982.459228 441.825072l-370.15009 370.15009 36.349456 36.349455 370.150089-370.150089-36.349455-36.349456zM614.356995 51.196416a127.991041 127.991041 0 0 1 127.991041 127.991041 114.679972 114.679972 0 0 1-4.095714 31.741778 96.249263 96.249263 0 0 1-5.119641 15.870889l-18.43071 31.229814L614.356995 434.14561l-102.392832-175.091744-17.918746-30.71785a102.392833 102.392833 0 0 1-5.631606-16.894817 113.14408 113.14408 0 0 1-4.095713-30.71785A127.991041 127.991041 0 0 1 614.356995 51.196416m0-51.196416a179.187457 179.187457 0 0 0-179.187457 179.187457 163.828532 163.828532 0 0 0 5.631606 45.052846 144.885858 144.885858 0 0 0 8.703391 24.57428l19.966602 34.301599L614.356995 537.562371l144.373894-252.910297 19.966602-34.301599a144.885858 144.885858 0 0 0 8.703391-24.574279 163.828532 163.828532 0 0 0 5.631606-44.540882A179.187457 179.187457 0 0 0 614.356995 0z" fill="#ffffff" p-id="3118"></path><path d="M614.356995 132.086754a29.693921 29.693921 0 1 1-29.181957 29.693921 29.693921 29.693921 0 0 1 29.181957-29.693921m0-51.196416a80.378374 80.378374 0 1 0 80.378374 80.890337A80.378374 80.378374 0 0 0 614.356995 80.890338z" fill="#ffffff" p-id="3119"></path></svg>