<?xml version="1.0" standalone="no"?><!DOCTYPE svg PUBLIC "-//W3C//DTD SVG 1.1//EN" "http://www.w3.org/Graphics/SVG/1.1/DTD/svg11.dtd"><svg t="1685277008245" class="icon" viewBox="0 0 1024 1024" version="1.1" xmlns="http://www.w3.org/2000/svg" p-id="3589" xmlns:xlink="http://www.w3.org/1999/xlink" width="32" height="32"><path d="M597.333333 640H384V426.666667h213.333333z m0 298.666667v-256H384v256z m42.666667-256v256h202.666667a53.393333 53.393333 0 0 0 53.333333-53.333334v-202.666666zM384 128v256h213.333333V128z m-42.666667 298.666667H85.333333v213.333333h256z m554.666667 0H640v213.333333h256z m-554.666667-42.666667V128H138.666667a53.393333 53.393333 0 0 0-53.333334 53.333333v202.666667z m0 298.666667H85.333333v202.666666a53.393333 53.393333 0 0 0 53.333334 53.333334h202.666666z m298.666667-298.666667h256V181.333333a53.393333 53.393333 0 0 0-53.333333-53.333333H640z" fill="#ffffff" p-id="3590"></path></svg>