<?xml version="1.0" standalone="no"?><!DOCTYPE svg PUBLIC "-//W3C//DTD SVG 1.1//EN" "http://www.w3.org/Graphics/SVG/1.1/DTD/svg11.dtd"><svg t="1684635274429" class="icon" viewBox="0 0 1024 1024" version="1.1" xmlns="http://www.w3.org/2000/svg" p-id="1601" width="32" height="32" xmlns:xlink="http://www.w3.org/1999/xlink"><path d="M896 387.221333v422.314667c0 46.314667-37.76 84.053333-84.053333 84.053333H212.053333A84.202667 84.202667 0 0 1 128 809.536V387.2h768zM649.536 578.56a91.605333 91.605333 0 0 0-138.56 82.965333 78.506667 78.506667 0 0 0 26.069333 152.597334h130.858667a78.506667 78.506667 0 0 0 26.069333-152.597334 91.605333 91.605333 0 0 0-44.437333-82.986666zM376.746667 629.824h-17.450667v26.176h17.450667v-26.176z m46.805333-26.624l-12.330667 12.330667 18.517334 18.517333 12.330666-12.330667-18.517333-18.517333z m-111.061333 0l-18.517334 18.517333 12.330667 12.330667 18.517333-18.517333-12.330666-12.330667z m55.530666-95.573333a52.373333 52.373333 0 1 0 0 104.746666 52.373333 52.373333 0 0 0 0-104.746666z m96 43.648h-26.176v17.450666h26.176v-17.450666z m-165.824 0H272v17.450666h26.176v-17.450666z m8.106667-65.322667l-12.330667 12.352 18.517334 18.496 12.330666-12.330667-18.517333-18.517333z m123.434667 0l-18.517334 18.517333 12.330667 12.330667 18.517333-18.517333-12.330666-12.330667z m-52.992-21.952h-17.450667v26.176h17.450667V464zM731.221333 128c4.544 0 8.746667 2.24 11.306667 5.909333l137.429333 198.421334H143.872l135.786667-198.336A13.653333 13.653333 0 0 1 290.986667 128z" fill="#ffffff" p-id="1602"></path></svg>