<?xml version="1.0" standalone="no"?><!DOCTYPE svg PUBLIC "-//W3C//DTD SVG 1.1//EN" "http://www.w3.org/Graphics/SVG/1.1/DTD/svg11.dtd"><svg t="1685278688433" class="icon" viewBox="0 0 1024 1024" version="1.1" xmlns="http://www.w3.org/2000/svg" p-id="2599" xmlns:xlink="http://www.w3.org/1999/xlink" width="32" height="32"><path d="M597.056 544h348.416L703.68 913.664H106.528l195.776-307.072H96L286.912 320h466.56z" fill="#ffffff" p-id="2600"></path><path d="M490.72 521.376c-45.056 23.424-74.112 47.296-74.112 47.296-61.568 26.976-27.2-25.984-76.032-36.864C291.744 520.96 256 476.672 256 476.672c37.6-68.256 135.264-64.352 135.264-64.352 37.12-28.064 110.72-29.984 182.144-27.52 71.392 2.272 10.4 37.44 8.512 64.32-2.08 26.784-46.112 48.864-91.232 72.256z m320.448 181.92c-3.328 51.616-56.096 155.488-129.792 200.48-12.96 7.904-66.048-14.752-77.248-7.104h-200.48c-2.944-1.152-5.888-2.432-9.344-3.36C314.496 872.384 256 787.264 256 787.264c61.696-131.424 221.312-123.84 221.312-123.84 27.968-24.832 115.584-4.8 162.688-12.448 55.232-8.96 72.192-40.128 135.424-40.672 159.04-1.408 28.352 71.52 24.992 123.168l10.752-30.176z" fill="#ffffff" p-id="2601"></path><path d="M218.784 480l-63.04 94.592h196.64L407.36 480H218.784z m21.312-32h185.856l55.776-96H304.032l-63.936 96z m273.632-96l-55.776 96h171.84l63.936-96h-180z m94.72 128H439.36l-54.976 94.592h161.056L608.48 480zM286.912 320h466.56l-190.88 286.592H96L286.912 320z" fill="#ffffff" p-id="2602"></path><path d="M638.432 576l21.856-32h285.184L698.88 926.592H96L280.768 640H642.88l40.736-64H638.4z m77.216 0l-40.736 64h170.624l41.248-64h-171.136zM298.208 672l-61.888 96h133.12l61.12-96H298.208zM215.68 800l-60.992 94.592h134.208L349.088 800H215.68z m105.216 94.592h160L541.088 800h-160l-60.192 94.592z m192 0h168.48L742.4 800h-169.28l-60.192 94.592zM763.008 768l61.888-96h-170.336l-61.12 96h169.568z m-201.568 0l61.12-96h-160l-61.12 96h160z" fill="#ffffff" p-id="2603"></path><path d="M801.184 152.16l-70.24 70.08a16 16 0 1 1-22.592-22.656l110.592-110.4 107.232 110.56a16 16 0 1 1-22.944 22.304l-70.08-72.224v315.904a16 16 0 1 1-32 0v-313.6z" fill="#ffffff" p-id="2604"></path></svg>