<?xml version="1.0" standalone="no"?><!DOCTYPE svg PUBLIC "-//W3C//DTD SVG 1.1//EN" "http://www.w3.org/Graphics/SVG/1.1/DTD/svg11.dtd"><svg t="1685080222446" class="icon" viewBox="0 0 1307 1024" version="1.1" xmlns="http://www.w3.org/2000/svg" p-id="1310" xmlns:xlink="http://www.w3.org/1999/xlink" width="40.84375" height="32"><path d="M805.58292245 907.5078125h-500.74923254A188.52834895 188.52834895 0 0 1 116.4921875 719.16631009V304.83368991A188.52834895 188.52834895 0 0 1 304.83368991 116.4921875h633.13013912a188.52834895 188.52834895 0 0 1 188.34150241 188.34150241v207.11959846a14.01350459 14.01350459 0 1 1-28.02700917 0V304.83368991A160.50133978 160.50133978 0 0 0 937.96382903 144.51919666H304.83368991A160.50133978 160.50133978 0 0 0 144.51919666 304.83368991v414.33262018a160.50133978 160.50133978 0 0 0 160.31449325 160.31449325h500.74923254a14.01350459 14.01350459 0 0 1 0 28.02700916z" p-id="1311" fill="#ffffff"></path><path d="M267.27749705 748.5012466a14.01350459 14.01350459 0 0 1-9.34233639-24.57034505l194.22717467-167.04097494a8.22125636 8.22125636 0 0 1 1.58819715-1.30792735 85.85607196 85.85607196 0 0 1 107.62371578 10.93053355l109.67902928 108.09083289a59.13698936 59.13698936 0 0 0 42.13393702 16.72278177 58.1093326 58.1093326 0 0 0 41.38655084-18.68467278l229.16751208-254.20497424a14.01350459 14.01350459 0 0 1 20.83341033 18.68467278L775.12690514 692.07353442a85.4823781 85.4823781 0 0 1-61.47257345 27.27962221 86.6034589 86.6034589 0 0 1-62.2199604-24.75719158L541.75534122 586.59855619a58.1093326 58.1093326 0 0 0-72.02941392-7.8475625L276.43298689 745.13800574a13.54638746 13.54638746 0 0 1-9.15548985 3.36324086zM784.74951212 430.39469152A98.65507247 98.65507247 0 1 1 883.40458459 331.36592518a98.841919 98.841919 0 0 1-98.65507248 99.02876634z m-1e-8-169.28313656A70.62806331 70.62806331 0 1 0 855.37757543 331.36592518a70.72148658 70.72148658 0 0 0-70.62806331-70.25437022zM1011.30117028 875.93071517a14.01350459 14.01350459 0 0 1-14.01350457-14.01350458V620.97835475a14.01350459 14.01350459 0 0 1 28.02700917 0v240.93885584a14.01350459 14.01350459 0 0 1-14.0135046 14.01350458z" p-id="1312" fill="#ffffff"></path><path d="M1011.30117028 889.38368012a13.63981149 13.63981149 0 0 1-9.90287678-4.11062856l-92.67597693-92.67597693a13.92008131 13.92008131 0 0 1 0-19.80575358 14.10692786 14.10692786 0 0 1 19.8057528 0l82.77310091 82.77310092 82.77310094-82.77310092a14.10692786 14.10692786 0 0 1 19.8057528 0 13.92008131 13.92008131 0 0 1 0 19.80575358l-92.67597694 92.67597693a13.63981149 13.63981149 0 0 1-9.9028768 4.11062856z" p-id="1313" fill="#ffffff"></path></svg>