<?xml version="1.0" standalone="no"?><!DOCTYPE svg PUBLIC "-//W3C//DTD SVG 1.1//EN" "http://www.w3.org/Graphics/SVG/1.1/DTD/svg11.dtd"><svg t="1685080207033" class="icon" viewBox="0 0 1024 1024" version="1.1" xmlns="http://www.w3.org/2000/svg" p-id="1068" xmlns:xlink="http://www.w3.org/1999/xlink" width="32" height="32"><path d="M792.064 181.169231c47.734154 0 86.764308 37.060923 89.954462 83.968l0.196923 6.183384v299.165539a15.753846 15.753846 0 0 1-31.192616 3.150769l-0.315077-3.150769V271.320615c0-30.483692-23.236923-55.532308-52.972307-58.368L792.024615 212.676923H271.36c-30.483692 0-55.532308 23.236923-58.368 52.972308L212.676923 271.36V792.024615c0 30.483692 23.236923 55.532308 52.972308 58.368l5.671384 0.275693h298.968616a15.753846 15.753846 0 0 1 3.150769 31.192615l-3.150769 0.315077H271.320615a90.151385 90.151385 0 0 1-89.954461-83.968L181.169231 792.024615V271.36c0-47.734154 37.060923-86.764308 83.968-89.954462L271.36 181.169231H792.024615zM689.230769 551.384615a98.461538 98.461538 0 0 1 78.887385 157.380923l84.007384 108.386462a15.753846 15.753846 0 0 1-22.724923 21.582769l-2.166153-2.284307-81.92-105.629539A98.461538 98.461538 0 1 1 689.230769 551.384615z m0 31.507693a66.953846 66.953846 0 1 0 0 133.907692 66.953846 66.953846 0 0 0 0-133.907692z m110.119385-278.409846a15.753846 15.753846 0 0 1 1.063384 19.88923l-2.126769 2.363077-268.918154 243.790769a15.753846 15.753846 0 0 1-18.668307 1.851077l-2.756923-2.087384-91.608616-86.685539-130.008615 118.784a15.753846 15.753846 0 0 1-19.889231 1.142154l-2.363077-2.126769a15.753846 15.753846 0 0 1-1.142154-19.889231l2.12677-2.363077 140.878769-128.669538a15.753846 15.753846 0 0 1 18.707692-1.890462l2.756923 2.087385 91.569231 86.685538 258.126769-233.944615a15.753846 15.753846 0 0 1 22.252308 1.063385zM334.769231 275.692308a59.076923 59.076923 0 1 1 0 118.153846 59.076923 59.076923 0 0 1 0-118.153846z m0 31.507692a27.569231 27.569231 0 1 0 0 55.138462 27.569231 27.569231 0 0 0 0-55.138462z" fill="#ffffff" p-id="1069"></path></svg>